<?xml version="1.0" encoding="UTF-8" standalone="no"?>
<svg
   xmlns:dc="http://purl.org/dc/elements/1.1/"
   xmlns:cc="http://creativecommons.org/ns#"
   xmlns:rdf="http://www.w3.org/1999/02/22-rdf-syntax-ns#"
   xmlns:svg="http://www.w3.org/2000/svg"
   xmlns="http://www.w3.org/2000/svg"
   xmlns:sodipodi="http://sodipodi.sourceforge.net/DTD/sodipodi-0.dtd"
   xmlns:inkscape="http://www.inkscape.org/namespaces/inkscape"
   id="Ebene_1"
   version="1.1"
   viewBox="0 0 352 280.15"
   sodipodi:docname="Studentensyndrom.svg"
   inkscape:export-filename="/home/zweifeln/ProX/zweifeln/zweifeln.org/images/posts/Studentensyndrom.png"
   inkscape:export-xdpi="122.67714"
   inkscape:export-ydpi="122.67714"
   inkscape:version="0.92.3 (2405546, 2018-03-11)">
  <metadata
     id="metadata347">
    <rdf:RDF>
      <cc:Work
         rdf:about="">
        <dc:format>image/svg+xml</dc:format>
        <dc:type
           rdf:resource="http://purl.org/dc/dcmitype/StillImage" />
      </cc:Work>
    </rdf:RDF>
  </metadata>
  <sodipodi:namedview
     pagecolor="#ffffff"
     bordercolor="#666666"
     borderopacity="1"
     objecttolerance="10"
     gridtolerance="10"
     guidetolerance="10"
     inkscape:pageopacity="0"
     inkscape:pageshadow="2"
     inkscape:window-width="1920"
     inkscape:window-height="1053"
     id="namedview345"
     showgrid="false"
     inkscape:zoom="0.84240587"
     inkscape:cx="176"
     inkscape:cy="140.075"
     inkscape:window-x="0"
     inkscape:window-y="27"
     inkscape:window-maximized="1"
     inkscape:current-layer="Ebene_1" />
  <defs
     id="defs22">
    <style
       type="text/css"
       id="style2">.cls-1,.cls-10,.cls-2,.cls-4,.cls-7{fill:none;}.cls-1{clip-rule:evenodd;}.cls-3{clip-path:url(#clip-path);}.cls-10,.cls-4,.cls-5,.cls-7{stroke:#000;stroke-width:0.47px;}.cls-4,.cls-5,.cls-7{stroke-miterlimit:10;}.cls-5{fill-rule:evenodd;}.cls-6{clip-path:url(#clip-path-2);}.cls-7{stroke-dasharray:3.78;}.cls-8{clip-path:url(#clip-path-3);}.cls-9{clip-path:url(#clip-path-4);}.cls-10{stroke-linejoin:bevel;}.cls-11{clip-path:url(#clip-path-5);}.cls-12{clip-path:url(#clip-path-6);}.cls-13{fill:#1d1d1b;}</style>
    <clipPath
       id="clip-path">
      <path
         class="cls-1"
         d="M0,.15v280H352V.15ZM234.33,100.77v9.51h3.78v-9.51h0l-1.89,7.56-1.89-7.56Z"
         id="path4" />
    </clipPath>
    <clipPath
       id="clip-path-2">
      <rect
         class="cls-2"
         y="0.15"
         width="352"
         height="280"
         id="rect7" />
    </clipPath>
    <clipPath
       id="clip-path-3">
      <path
         class="cls-1"
         d="M0,.15v280H352V.15ZM50.09,168.8v9.51h3.78V168.8h0L52,176.35l-1.89-7.55Z"
         id="path10" />
    </clipPath>
    <clipPath
       id="clip-path-4">
      <path
         class="cls-1"
         d="M0,.15v280H352V.15Zm126.62,197v9.51h3.78v-9.51h0l-1.89,7.56-1.89-7.56Z"
         id="path13" />
    </clipPath>
    <clipPath
       id="clip-path-5">
      <path
         class="cls-1"
         d="M0,.15v280H352V.15Zm19.85,27V17.68H16.07v9.51h0L18,19.64l1.89,7.55Z"
         id="path16" />
    </clipPath>
    <clipPath
       id="clip-path-6">
      <path
         class="cls-1"
         d="M0,.15v280H352V.15ZM318.36,218.94h9.51v-3.78h-9.51l7.56,1.89-7.56,1.89Z"
         id="path19" />
    </clipPath>
  </defs>
  <title
     id="title24">Studentensyndrom</title>
  <g
     class="cls-3"
     clip-path="url(#clip-path)"
     id="g28">
    <line
       class="cls-4"
       x1="236.22"
       y1="83.82"
       x2="236.22"
       y2="109.33"
       id="line26" />
  </g>
  <polygon
     class="cls-5"
     points="234.33 100.77 236.22 108.33 238.11 100.77 234.33 100.77 234.33 100.77"
     id="polygon30" />
  <g
     class="cls-6"
     clip-path="url(#clip-path-2)"
     id="g34">
    <path
       class="cls-7"
       d="M267.4,217.05V27.13M190.87,217.05V194.37M43.47,242.56v36.85m147.4-36.85v36.85m76.53-36.85v36.85"
       id="path32" />
  </g>
  <g
     class="cls-8"
     clip-path="url(#clip-path-3)"
     id="g38">
    <line
       class="cls-4"
       x1="51.98"
       y1="151.85"
       x2="51.98"
       y2="177.36"
       id="line36" />
  </g>
  <polygon
     class="cls-5"
     points="50.09 168.8 51.98 176.35 53.87 168.8 50.09 168.8 50.09 168.8"
     id="polygon40" />
  <g
     class="cls-9"
     clip-path="url(#clip-path-4)"
     id="g44">
    <line
       class="cls-4"
       x1="128.51"
       y1="180.2"
       x2="128.51"
       y2="205.71"
       id="line42" />
  </g>
  <polygon
     class="cls-5"
     points="126.62 197.14 128.51 204.7 130.4 197.14 126.62 197.14 126.62 197.14"
     id="polygon46" />
  <line
     class="cls-7"
     x1="284.41"
     y1="217.05"
     x2="284.41"
     y2="27.13"
     id="line48" />
  <polyline
     class="cls-10"
     points="43.48 217.05 43.48 216.98 43.48 216.79 43.48 216.29 43.48 215.41 43.54 214.15 43.54 212.64 43.6 211 43.66 209.3 43.66 207.66 43.79 206.09 43.85 204.64 43.92 203.25 44.04 201.93 44.1 200.67 44.29 199.41 44.42 198.15 44.61 196.83 44.8 195.44 45.05 194.06 45.3 192.61 45.55 191.16 45.93 189.71 46.31 188.26 46.69 186.94 47.13 185.68 47.63 184.48 48.14 183.47 48.64 182.65 49.21 182.02 49.77 181.52 50.4 181.27 51.03 181.14 51.6 181.21 52.23 181.46 52.92 181.84 53.62 182.34 54.37 182.97 55.19 183.79 55.95 184.67 56.83 185.68 57.65 186.81 58.47 187.94 59.35 189.14 60.1 190.34 60.92 191.6 61.68 192.79 62.37 193.93 63.06 195.06 63.69 196.2 64.26 197.2 64.7 198.02 65.21 198.78 65.65 199.6 66.15 200.35 66.66 201.05 67.22 201.8 67.79 202.5 68.48 203.13 69.24 203.82 70.12 204.45 71 205.08 72.01 205.65 73.14 206.15 74.4 206.65 75.73 207.16 77.17 207.6 78.69 207.98 80.39 208.35 82.15 208.67 84.1 208.98 86.12 209.24 88.39 209.49 89.9 209.61 91.47 209.8 93.17 209.93 94.94 210.05 96.83 210.18 98.78 210.24 100.8 210.37 102.94 210.43 105.14 210.56 107.41 210.62 109.74 210.68 112.2 210.75 114.65 210.81 117.17 210.87 119.76 210.87 122.34 210.87 124.98 210.94 127.63 210.94 130.28 210.94 132.92 210.94 135.57 210.87 138.15 210.87 140.73 210.81 143.25 210.81 145.71 210.75 148.16 210.68 150.5 210.62 152.82 210.56 155.09 210.43 157.24 210.37 159.38 210.31 161.46 210.18 163.41 210.05 165.36 209.99 167.82 209.8 170.21 209.61 172.54 209.42 174.81 209.24 177.01 209.05 179.22 208.79 181.36 208.54 183.5 208.23 185.58 207.91 187.66 207.6 189.61 207.22 191.56 206.84 193.52 206.46 195.34 206.02 197.11 205.58 198.87 205.14 200.51 204.64 202.08 204.13 203.66 203.63 205.11 203.13 206.56 202.56 207.94 201.99 209.26 201.43 210.52 200.79 211.85 200.23 213.11 199.6 214.43 198.84 215.81 198.09 217.14 197.27 218.52 196.45 219.91 195.57 221.36 194.62 222.81 193.68 224.19 192.61 225.64 191.53 227.09 190.46 228.54 189.27 229.99 188.13 231.37 186.94 232.76 185.68 234.08 184.48 235.34 183.22 236.6 182.02 237.74 180.76 238.87 179.57 240 178.37 241.01 177.17 241.96 175.98 242.9 174.78 243.78 173.58 244.54 172.57 245.23 171.5 245.93 170.43 246.62 169.36 247.25 168.23 247.94 167.03 248.57 165.77 249.26 164.51 249.89 163.19 250.52 161.74 251.15 160.29 251.78 158.78 252.41 157.21 253.04 155.57 253.67 153.87 254.24 152.1 254.87 150.28 255.44 148.45 256.07 146.56 256.63 144.61 257.2 142.59 257.77 140.58 258.33 138.5 258.9 136.36 259.53 134.15 260.1 131.95 260.66 129.68 261.29 127.29 261.67 125.58 262.11 123.82 262.55 121.99 263.06 120.11 263.5 118.15 264 116.07 264.51 113.93 265.07 111.66 265.58 109.33 266.21 106.81 266.77 104.23 267.47 101.46 268.1 98.56 268.79 95.54 269.55 92.33 270.3 88.99 271.12 85.52 271.94 81.87 272.82 78.15 273.7 74.25 274.58 70.34 275.53 66.31 276.41 62.34 277.36 58.31 278.24 54.41 279.12 50.63 279.94 46.97 280.69 43.57 281.39 40.42 282.02 37.59 282.58 35.07 283.09 32.93 283.47 31.16 283.85 29.78 284.03 28.71 284.22 27.95 284.35 27.51 284.41 27.26 284.41 27.13"
     id="polyline50" />
  <g
     class="cls-11"
     clip-path="url(#clip-path-5)"
     id="g54">
    <line
       class="cls-4"
       x1="17.96"
       y1="217.05"
       x2="17.96"
       y2="18.63"
       id="line52" />
  </g>
  <polygon
     class="cls-5"
     points="19.85 27.19 17.96 19.64 16.07 27.19 19.85 27.19 19.85 27.19"
     id="polygon56" />
  <g
     class="cls-12"
     clip-path="url(#clip-path-6)"
     id="g60">
    <line
       class="cls-4"
       x1="17.96"
       y1="217.05"
       x2="326.93"
       y2="217.05"
       id="line58" />
  </g>
  <polygon
     class="cls-5"
     points="318.36 218.94 325.92 217.05 318.36 215.16 318.36 218.94 318.36 218.94"
     id="polygon62" />
  <path
     class="cls-4"
     d="M43.47,217.05v5.67m223.93-5.67v5.67m-76.53-5.67v5.67"
     id="path64" />
  <path
     class="cls-13"
     d="M41.14,235.57l.75-.62a2.66,2.66,0,0,0,2.25,1.2c1.2,0,1.85-.62,1.85-1.58,0-.8-.44-1.19-1.55-1.44l-.68-.16c-1.52-.35-2.36-1-2.36-2.3,0-1.49,1.12-2.29,2.77-2.29a3.17,3.17,0,0,1,2.77,1.36l-.76.56a2.34,2.34,0,0,0-2.06-1c-1.07,0-1.73.46-1.73,1.36s.52,1.15,1.57,1.39l.69.16c1.63.37,2.34,1.09,2.34,2.34,0,1.53-1.08,2.52-2.88,2.52A3.49,3.49,0,0,1,41.14,235.57Z"
     id="path66" />
  <path
     class="cls-13"
     d="M50,236.89a1,1,0,0,1-1-1v-4.33H48v-.84h.58c.4,0,.54-.14.54-.56V229h.86v1.71h1.35v.84H49.94v4.51H51.2v.84Z"
     id="path68" />
  <path
     class="cls-13"
     d="M57.34,236.89a1,1,0,0,1-1.07-1h-.06A1.74,1.74,0,0,1,54.43,237a1.83,1.83,0,0,1-2.08-1.87c0-1.17.84-1.82,2.64-1.82h1.22v-.61c0-.87-.48-1.35-1.46-1.35a1.74,1.74,0,0,0-1.57.92l-.58-.54a2.36,2.36,0,0,1,2.2-1.21c1.49,0,2.37.78,2.37,2.09v3.4h.71v.84Zm-1.13-1.8v-1H54.94c-1.09,0-1.58.34-1.58.94v.25c0,.61.48,1,1.22,1C55.53,236.22,56.21,235.73,56.21,235.09Z"
     id="path70" />
  <path
     class="cls-13"
     d="M59.25,236.89V230.7h1v1.14h.06a1.79,1.79,0,0,1,1.79-1.14h.37v1h-.56c-1,0-1.66.45-1.66,1v4.19Z"
     id="path72" />
  <path
     class="cls-13"
     d="M65,236.89a1,1,0,0,1-1-1v-4.33H63v-.84h.58c.41,0,.54-.14.54-.56V229H65v1.71h1.36v.84H65v4.51h1.26v.84Z"
     id="path74" />
  <path
     class="cls-13"
     d="M69.23,236.89a1,1,0,0,1-1-1v-4.33h-1v-.84h.57c.41,0,.54-.14.54-.56V229h.86v1.71h1.36v.84H69.17v4.51h1.26v.84Z"
     id="path76" />
  <path
     class="cls-13"
     d="M71.62,233.8c0-2,1.11-3.24,2.79-3.24s2.67,1.27,2.67,3V234H72.63v.29a1.76,1.76,0,0,0,1.84,1.87,1.81,1.81,0,0,0,1.7-1.07l.68.49A2.59,2.59,0,0,1,74.41,237C72.73,237,71.62,235.77,71.62,233.8Zm1-.57v.09h3.42v-.13a1.65,1.65,0,0,0-1.64-1.83A1.76,1.76,0,0,0,72.63,233.23Z"
     id="path78" />
  <path
     class="cls-13"
     d="M78.67,236.89V230.7h1v1.14h.06a1.78,1.78,0,0,1,1.78-1.14h.37v1h-.56c-1,0-1.65.45-1.65,1v4.19Z"
     id="path80" />
  <path
     class="cls-13"
     d="M83.07,236.89V230.7h1v1h0a1.66,1.66,0,0,1,1.66-1.15,1.91,1.91,0,0,1,1.9,1.26h0a1.87,1.87,0,0,1,1.89-1.26c1.26,0,2,.86,2,2.36v4h-1v-3.8c0-1.09-.42-1.67-1.35-1.67-.76,0-1.45.39-1.45,1.18v4.29h-1v-3.8c0-1.1-.42-1.67-1.34-1.67-.75,0-1.47.39-1.47,1.18v4.29Z"
     id="path82" />
  <path
     class="cls-13"
     d="M93.44,228.71v-.15c0-.33.18-.54.59-.54s.58.21.58.54v.15c0,.33-.18.54-.58.54S93.44,229,93.44,228.71Zm.11,2h1v6.19h-1Z"
     id="path84" />
  <path
     class="cls-13"
     d="M96.55,236.89V230.7h1v1h0a1.76,1.76,0,0,1,1.75-1.15c1.28,0,2.08.86,2.08,2.36v4h-1v-3.8c0-1.1-.48-1.67-1.4-1.67-.77,0-1.52.39-1.52,1.18v4.29Z"
     id="path86" />
  <path
     class="cls-13"
     d="M7.31,10.13,6.47,7.66H3.09l-.84,2.47h-1L4.16,1.76H5.44l2.93,8.37ZM4.8,2.69H4.74L3.33,6.77H6.22Z"
     id="path88" />
  <path
     class="cls-13"
     d="M9.66,10.13V3.94h1V5.08h.06a1.78,1.78,0,0,1,1.79-1.14h.37v1h-.56c-1,0-1.66.44-1.66,1v4.2Z"
     id="path90" />
  <path
     class="cls-13"
     d="M14.07,1.25h1V5h.05a1.8,1.8,0,0,1,1.81-1.16c1.54,0,2.51,1.26,2.51,3.24s-1,3.24-2.51,3.24a1.85,1.85,0,0,1-1.81-1.15H15v1h-1Zm4.3,6.31v-1a1.69,1.69,0,0,0-1.75-1.85c-.87,0-1.59.5-1.59,1.19v2.3c0,.8.72,1.26,1.59,1.26A1.69,1.69,0,0,0,18.37,7.56Z"
     id="path92" />
  <path
     class="cls-13"
     d="M20.57,7c0-2,1.11-3.24,2.78-3.24S26,5.07,26,6.82v.45H21.58v.29a1.75,1.75,0,0,0,1.83,1.87,1.8,1.8,0,0,0,1.71-1.07l.68.5a2.58,2.58,0,0,1-2.45,1.41C21.68,10.27,20.57,9,20.57,7Zm1-.56v.08H25V6.42A1.65,1.65,0,0,0,23.35,4.6,1.76,1.76,0,0,0,21.58,6.47Z"
     id="path94" />
  <path
     class="cls-13"
     d="M27.51,2V1.79a.51.51,0,0,1,.58-.54c.41,0,.59.22.59.54V2c0,.32-.18.54-.59.54A.51.51,0,0,1,27.51,2Zm.11,2h.95v6.19h-.95Z"
     id="path96" />
  <path
     class="cls-13"
     d="M32,10.13a1,1,0,0,1-1-1V4.78h-1V3.94h.58c.41,0,.54-.15.54-.56V2.22h.86V3.94h1.36v.84H31.92V9.29h1.26v.84Z"
     id="path98" />
  <path
     class="cls-13"
     d="M34.24,9.06l.68-.55a2.26,2.26,0,0,0,1.84,1c.81,0,1.29-.38,1.29-1,0-.48-.26-.85-1.08-1l-.49-.08c-1.14-.16-2-.63-2-1.78s.95-1.83,2.21-1.83a2.61,2.61,0,0,1,2.16,1l-.64.58a1.88,1.88,0,0,0-1.59-.76c-.8,0-1.22.37-1.22,1s.42.84,1.19,1l.48.07c1.37.21,1.9.8,1.9,1.74,0,1.2-.88,1.93-2.29,1.93A2.88,2.88,0,0,1,34.24,9.06Z"
     id="path100" />
  <path
     class="cls-13"
     d="M40.21,7c0-2,1.11-3.24,2.79-3.24s2.67,1.28,2.67,3v.45H41.22v.29a1.76,1.76,0,0,0,1.84,1.87,1.78,1.78,0,0,0,1.7-1.07l.68.5A2.58,2.58,0,0,1,43,10.27C41.32,10.27,40.21,9,40.21,7Zm1-.56v.08h3.42V6.42A1.64,1.64,0,0,0,43,4.6,1.76,1.76,0,0,0,41.22,6.47Z"
     id="path102" />
  <path
     class="cls-13"
     d="M47.15,2V1.79c0-.32.18-.54.59-.54s.59.22.59.54V2c0,.32-.18.54-.59.54S47.15,2.27,47.15,2Zm.11,2h1v6.19h-1Z"
     id="path104" />
  <path
     class="cls-13"
     d="M50.59,4.78h-1V3.94h1V2.69A1.28,1.28,0,0,1,52,1.25h.93v.84H51.55V3.94h1.33v.84H51.55v5.35h-1Z"
     id="path106" />
  <path
     class="cls-13"
     d="M53.69,7c0-2,1.1-3.24,2.78-3.24s2.68,1.28,2.68,3v.45H54.7v.29a1.75,1.75,0,0,0,1.83,1.87,1.8,1.8,0,0,0,1.71-1.07l.68.5a2.59,2.59,0,0,1-2.45,1.41C54.79,10.27,53.69,9,53.69,7Zm1-.56v.08h3.42V6.42A1.65,1.65,0,0,0,56.47,4.6,1.76,1.76,0,0,0,54.7,6.47Z"
     id="path108" />
  <path
     class="cls-13"
     d="M60.73,10.13V3.94h1V5.08h.06a1.78,1.78,0,0,1,1.79-1.14h.37v1h-.56c-1,0-1.66.44-1.66,1v4.2Z"
     id="path110" />
  <path
     class="cls-13"
     d="M175.1,60.63c0-2.81,1.39-4.33,3.55-4.33s3.55,1.52,3.55,4.33S180.81,65,178.65,65,175.1,63.44,175.1,60.63Zm6,.69V59.93a2.48,2.48,0,1,0-4.94,0v1.39a2.48,2.48,0,1,0,4.94,0Z"
     id="path112" />
  <path
     class="cls-13"
     d="M183.92,55.94h1v3.69h.05a1.76,1.76,0,0,1,1.75-1.15c1.27,0,2.07.87,2.07,2.37v4h-.95V61c0-1.1-.48-1.66-1.41-1.66-.76,0-1.51.38-1.51,1.17v4.29h-1Z"
     id="path114" />
  <path
     class="cls-13"
     d="M192.08,64.12v.17A3.1,3.1,0,0,1,191,66.41h-.8a3,3,0,0,0,.89-1.49.58.58,0,0,1-.46-.63v-.17a.73.73,0,0,1,1.46,0Z"
     id="path116" />
  <path
     class="cls-13"
     d="M196.83,58.63h1v7.14a1.26,1.26,0,0,1-1.34,1.44h-.62v-.84h1Zm-.11-2v-.16a.51.51,0,0,1,.59-.54c.41,0,.59.22.59.54v.16c0,.32-.18.54-.59.54A.51.51,0,0,1,196.72,56.64Z"
     id="path118" />
  <path
     class="cls-13"
     d="M199.38,61.72c0-2,1.1-3.24,2.78-3.24s2.67,1.27,2.67,3V62h-4.45v.29a1.76,1.76,0,0,0,1.84,1.87,1.78,1.78,0,0,0,1.7-1.07l.69.49A2.61,2.61,0,0,1,202.16,65C200.48,65,199.38,63.69,199.38,61.72Zm1-.56v.08h3.42v-.13a1.64,1.64,0,0,0-1.64-1.82A1.76,1.76,0,0,0,200.38,61.16Z"
     id="path120" />
  <path
     class="cls-13"
     d="M207.79,64.81a.94.94,0,0,1-1-1V59.47h-1v-.84h.57c.41,0,.54-.15.54-.57V56.91h.87v1.72h1.35v.84h-1.35V64H209v.83Z"
     id="path122" />
  <path
     class="cls-13"
     d="M210,64.81V64l3.51-4.54h-3.4v-.84h4.57v.72L211.1,64h3.68v.83Z"
     id="path124" />
  <path
     class="cls-13"
     d="M217.57,64.81a.94.94,0,0,1-1-1V59.47h-1v-.84h.57c.41,0,.54-.15.54-.57V56.91h.87v1.72h1.35v.84h-1.35V64h1.26v.83Z"
     id="path126" />
  <path
     class="cls-13"
     d="M222.6,58.63h.93l.66,2.67.66,2.71h0l.76-2.71.78-2.67h.85l.8,2.67.77,2.71h0l.63-2.71.67-2.67h.9l-1.64,6.18h-1.19l-.86-3L226.83,60h0l-.52,1.88-.87,3h-1.16Z"
     id="path128" />
  <path
     class="cls-13"
     d="M232.35,56.64v-.16c0-.32.18-.54.59-.54s.59.22.59.54v.16c0,.32-.18.54-.59.54S232.35,57,232.35,56.64Zm.11,2h1v6.18h-1Z"
     id="path130" />
  <path
     class="cls-13"
     d="M235.46,64.81V58.63h1v1.14h.06a1.77,1.77,0,0,1,1.79-1.14h.37v1h-.57c-1,0-1.65.44-1.65,1v4.19Z"
     id="path132" />
  <path
     class="cls-13"
     d="M243.82,63.81h0A1.86,1.86,0,0,1,242,65c-1.55,0-2.52-1.26-2.52-3.24s1-3.24,2.52-3.24a1.8,1.8,0,0,1,1.81,1.15h0V55.94h1v8.87h-1Zm0-1V60.53c0-.68-.72-1.18-1.6-1.18a1.69,1.69,0,0,0-1.75,1.84v1.06a1.7,1.7,0,0,0,1.75,1.85C243.1,64.1,243.82,63.64,243.82,62.84Z"
     id="path134" />
  <path
     class="cls-13"
     d="M246.82,59.3V55.94h.87V59.3Z"
     id="path136" />
  <path
     class="cls-13"
     d="M249.14,63.75l.68-.55a2.25,2.25,0,0,0,1.84.94c.81,0,1.29-.37,1.29-1s-.26-.86-1.08-1l-.49-.07c-1.14-.17-2-.63-2-1.78s1-1.83,2.21-1.83a2.55,2.55,0,0,1,2.15,1l-.63.57a1.92,1.92,0,0,0-1.6-.75c-.79,0-1.21.37-1.21,1s.42.84,1.19,1l.48.07c1.37.2,1.9.8,1.9,1.74,0,1.2-.88,1.93-2.3,1.93A2.88,2.88,0,0,1,249.14,63.75Z"
     id="path138" />
  <path
     class="cls-13"
     d="M91.06,168.85V168h1.18v-6.69H91.06v-.84h3.36v.84H93.25V168h1.17v.84Z"
     id="path140" />
  <path
     class="cls-13"
     d="M95.58,167.79l.68-.56a2.24,2.24,0,0,0,1.83,1c.82,0,1.3-.37,1.3-1s-.26-.86-1.08-1l-.49-.07c-1.14-.17-2-.63-2-1.79s.94-1.82,2.2-1.82a2.55,2.55,0,0,1,2.16,1l-.63.57a1.94,1.94,0,0,0-1.6-.75c-.79,0-1.21.37-1.21,1s.42.84,1.19,1l.48.07c1.37.2,1.89.8,1.89,1.74,0,1.2-.87,1.93-2.29,1.93A2.86,2.86,0,0,1,95.58,167.79Z"
     id="path142" />
  <path
     class="cls-13"
     d="M103.37,168.85a1,1,0,0,1-1-1v-4.32h-1v-.84h.58c.41,0,.54-.15.54-.57V161h.86v1.72h1.36v.84h-1.36V168h1.26v.84Z"
     id="path144" />
  <path
     class="cls-13"
     d="M109.05,162.67h1v7.14a1.26,1.26,0,0,1-1.34,1.44H108v-.84h1Zm-.11-2v-.15c0-.33.18-.54.59-.54s.59.21.59.54v.15c0,.33-.18.54-.59.54S108.94,161,108.94,160.67Z"
     id="path146" />
  <path
     class="cls-13"
     d="M116.55,168.85a1,1,0,0,1-1.07-1h-.06a1.75,1.75,0,0,1-1.79,1.15,1.82,1.82,0,0,1-2.07-1.87c0-1.17.84-1.81,2.64-1.81h1.22v-.62c0-.87-.48-1.35-1.46-1.35a1.72,1.72,0,0,0-1.57.92l-.58-.54a2.35,2.35,0,0,1,2.19-1.21c1.49,0,2.38.78,2.38,2.09V168h.71v.84Zm-1.13-1.79v-1h-1.27c-1.09,0-1.58.33-1.58.93v.25c0,.61.48,1,1.22,1C114.74,168.18,115.42,167.69,115.42,167.06Z"
     id="path148" />
  <path
     class="cls-13"
     d="M121.29,168.85v-6.18h1v1h0a1.76,1.76,0,0,1,1.75-1.15c1.27,0,2.07.87,2.07,2.36v4h-1v-3.8c0-1.1-.48-1.66-1.4-1.66s-1.51.38-1.51,1.17v4.29Z"
     id="path150" />
  <path
     class="cls-13"
     d="M127.65,165.76c0-2,1.14-3.24,2.79-3.24s2.8,1.27,2.8,3.24-1.14,3.24-2.8,3.24S127.65,167.73,127.65,165.76Zm4.56.44v-.88a1.77,1.77,0,1,0-3.53,0v.88a1.77,1.77,0,1,0,3.53,0Z"
     id="path152" />
  <path
     class="cls-13"
     d="M134.37,165.76c0-2,1-3.24,2.76-3.24a2.32,2.32,0,0,1,2.31,1.45l-.8.41a1.49,1.49,0,0,0-1.51-1,1.66,1.66,0,0,0-1.73,1.86v1.06a1.66,1.66,0,0,0,1.73,1.86,1.76,1.76,0,0,0,1.68-1.08l.69.46a2.43,2.43,0,0,1-2.37,1.47C135.39,169,134.37,167.74,134.37,165.76Z"
     id="path154" />
  <path
     class="cls-13"
     d="M140.86,160h1v3.69h.05a1.76,1.76,0,0,1,1.75-1.15c1.27,0,2.07.87,2.07,2.36v4h-1v-3.8c0-1.1-.48-1.66-1.4-1.66s-1.51.38-1.51,1.17v4.29h-1Z"
     id="path156" />
  <path
     class="cls-13"
     d="M156,168.85h-6.09v-.91l4.83-6.57h-4.58v-.89h5.68v.91L151,168h5Z"
     id="path158" />
  <path
     class="cls-13"
     d="M157,165.76c0-2,1.11-3.24,2.78-3.24a2.71,2.71,0,0,1,2.68,3V166H158v.29a1.75,1.75,0,0,0,1.83,1.87,1.82,1.82,0,0,0,1.71-1.07l.68.49a2.59,2.59,0,0,1-2.45,1.42C158.12,169,157,167.73,157,165.76Zm1-.56v.08h3.42v-.13a1.65,1.65,0,0,0-1.65-1.83A1.76,1.76,0,0,0,158,165.2Z"
     id="path160" />
  <path
     class="cls-13"
     d="M164,160.67v-.15c0-.33.18-.54.59-.54s.58.21.58.54v.15c0,.33-.18.54-.58.54S164,161,164,160.67Zm.11,2h1v6.18h-1Z"
     id="path162" />
  <path
     class="cls-13"
     d="M168.42,168.85a1,1,0,0,1-1-1v-4.32h-1v-.84H167c.41,0,.54-.15.54-.57V161h.86v1.72h1.36v.84h-1.36V168h1.26v.84Z"
     id="path164" />
  <path
     class="cls-13"
     d="M171.22,168.3v-.15a.73.73,0,0,1,1.46,0v.15a.73.73,0,0,1-1.46,0Zm.49-1.66-.29-3.72v-2.44h1.06v2.44l-.29,3.72Z"
     id="path166" />
  <path
     class="cls-13"
     d="M196.09,78.15a1,1,0,0,1-1.06-1H195a1.75,1.75,0,0,1-1.79,1.15,1.82,1.82,0,0,1-2.07-1.87c0-1.16.84-1.81,2.63-1.81H195V74c0-.87-.48-1.35-1.47-1.35a1.74,1.74,0,0,0-1.57.92l-.57-.54a2.34,2.34,0,0,1,2.19-1.21c1.49,0,2.38.78,2.38,2.09v3.4h.7v.84ZM195,76.35v-1H193.7c-1.09,0-1.59.34-1.59.94v.25c0,.61.48,1,1.23,1C194.28,77.48,195,77,195,76.35Z"
     id="path168" />
  <path
     class="cls-13"
     d="M198,69.28h1V73h0a1.81,1.81,0,0,1,1.81-1.15c1.55,0,2.52,1.26,2.52,3.24s-1,3.23-2.52,3.23A1.86,1.86,0,0,1,199,77.14h0v1h-1Zm4.3,6.3v-1a1.69,1.69,0,0,0-1.75-1.85c-.88,0-1.6.51-1.6,1.19v2.3c0,.81.72,1.26,1.6,1.26A1.69,1.69,0,0,0,202.31,75.58Z"
     id="path170" />
  <path
     class="cls-13"
     d="M204.51,75.06c0-2,1.1-3.24,2.78-3.24a2.71,2.71,0,0,1,2.68,3v.46h-4.45v.28a1.76,1.76,0,0,0,1.83,1.88,1.79,1.79,0,0,0,1.7-1.07l.69.49a2.59,2.59,0,0,1-2.45,1.41C205.61,78.29,204.51,77,204.51,75.06Zm1-.57v.09h3.41v-.14a1.64,1.64,0,0,0-1.64-1.82A1.76,1.76,0,0,0,205.52,74.49Z"
     id="path172" />
  <path
     class="cls-13"
     d="M211.55,78.15V72h1V73.1h.06A1.78,1.78,0,0,1,214.36,72h.37v1h-.56c-1,0-1.66.45-1.66,1v4.2Z"
     id="path174" />
  <path
     class="cls-13"
     d="M218.79,69.28h1V74.9h.05l.94-1.05L222.49,72h1.17l-2.29,2.45,2.51,3.74h-1.16L220.67,75l-.92.94v2.21h-1Z"
     id="path176" />
  <path
     class="cls-13"
     d="M225.11,78.15V72h1v1h.05a1.75,1.75,0,0,1,1.75-1.15c1.27,0,2.08.86,2.08,2.36v4h-1v-3.8c0-1.1-.48-1.67-1.41-1.67-.76,0-1.51.39-1.51,1.18v4.29Z"
     id="path178" />
  <path
     class="cls-13"
     d="M236.42,78.15a1,1,0,0,1-1.06-1h-.06a1.75,1.75,0,0,1-1.79,1.15,1.82,1.82,0,0,1-2.07-1.87c0-1.16.84-1.81,2.63-1.81h1.23V74c0-.87-.48-1.35-1.47-1.35a1.74,1.74,0,0,0-1.57.92l-.57-.54a2.34,2.34,0,0,1,2.19-1.21c1.49,0,2.38.78,2.38,2.09v3.4h.7v.84Zm-1.12-1.8v-1H234c-1.09,0-1.59.34-1.59.94v.25c0,.61.48,1,1.23,1C234.61,77.48,235.3,77,235.3,76.35Z"
     id="path180" />
  <path
     class="cls-13"
     d="M238.33,72h1v1h.05a1.81,1.81,0,0,1,1.81-1.15c1.55,0,2.52,1.26,2.52,3.24s-1,3.23-2.52,3.23a1.86,1.86,0,0,1-1.81-1.15h-.05v3.41h-1Zm4.31,3.62v-1a1.69,1.69,0,0,0-1.75-1.85c-.88,0-1.6.51-1.6,1.19v2.3c0,.81.72,1.26,1.6,1.26A1.69,1.69,0,0,0,242.64,75.58Z"
     id="path182" />
  <path
     class="cls-13"
     d="M245.29,72h1v1h.05a1.81,1.81,0,0,1,1.81-1.15c1.55,0,2.52,1.26,2.52,3.24s-1,3.23-2.52,3.23a1.86,1.86,0,0,1-1.81-1.15h-.05v3.41h-1Zm4.31,3.62v-1a1.69,1.69,0,0,0-1.75-1.85c-.88,0-1.6.51-1.6,1.19v2.3c0,.81.72,1.26,1.6,1.26A1.69,1.69,0,0,0,249.6,75.58Z"
     id="path184" />
  <path
     class="cls-13"
     d="M252.21,77.6v-.16a.73.73,0,0,1,1.46,0v.16a.73.73,0,0,1-1.46,0Zm.49-1.67-.29-3.72V69.78h1.06v2.43l-.29,3.72Z"
     id="path186" />
  <path
     class="cls-13"
     d="M22.43,140.65h3.44a2.05,2.05,0,0,1,2.23,2.16,1.63,1.63,0,0,1-1.35,1.78v.07a1.82,1.82,0,0,1,1.64,1.94A2.25,2.25,0,0,1,26.23,149h-3.8Zm1,3.63h2.31A1.12,1.12,0,0,0,27,143.11v-.4a1.12,1.12,0,0,0-1.27-1.17H23.44Zm0,3.86h2.48a1.23,1.23,0,0,0,1.39-1.3v-.4a1.23,1.23,0,0,0-1.39-1.3H23.44Z"
     id="path188" />
  <path
     class="cls-13"
     d="M29.71,145.93c0-2,1.11-3.24,2.78-3.24s2.68,1.27,2.68,3v.45H30.72v.29a1.75,1.75,0,0,0,1.83,1.87,1.8,1.8,0,0,0,1.71-1.07l.68.49a2.59,2.59,0,0,1-2.45,1.42C30.82,149.17,29.71,147.9,29.71,145.93Zm1-.56v.08h3.42v-.13a1.65,1.65,0,0,0-1.65-1.82A1.76,1.76,0,0,0,30.72,145.37Z"
     id="path190" />
  <path
     class="cls-13"
     d="M39,151.57c-1.93,0-2.72-.55-2.72-1.52a1.15,1.15,0,0,1,1-1.2v-.14a.89.89,0,0,1-.55-.86c0-.62.45-.92,1.07-1.08v-.05a2,2,0,0,1-1.16-1.89,2.12,2.12,0,0,1,2.32-2.14,2.89,2.89,0,0,1,1.18.24v-.1c0-.48.2-.83.72-.83h.92v.84H40.56v.39a2.08,2.08,0,0,1,.7,1.6A2.12,2.12,0,0,1,38.93,147a2.84,2.84,0,0,1-.6-.06c-.41.11-.82.32-.82.7s.38.47,1,.47h1.32c1.53,0,2.19.62,2.19,1.64C42,151,41,151.57,39,151.57Zm.82-2.6H37.73a.86.86,0,0,0-.58.84c0,.54.37,1,1.34,1h.89c1.07,0,1.69-.34,1.69-1C41.07,149.29,40.75,149,39.79,149Zm.47-4v-.34c0-.82-.52-1.2-1.33-1.2s-1.34.38-1.34,1.2V145c0,.81.52,1.2,1.34,1.2S40.26,145.81,40.26,145Z"
     id="path192" />
  <path
     class="cls-13"
     d="M42.64,145.93c0-2,1.1-3.24,2.78-3.24s2.67,1.27,2.67,3v.45H43.64v.29a1.76,1.76,0,0,0,1.84,1.87,1.78,1.78,0,0,0,1.7-1.07l.68.49a2.59,2.59,0,0,1-2.44,1.42C43.74,149.17,42.64,147.9,42.64,145.93Zm1-.56v.08h3.42v-.13a1.64,1.64,0,0,0-1.64-1.82A1.76,1.76,0,0,0,43.64,145.37Z"
     id="path194" />
  <path
     class="cls-13"
     d="M49.57,140.85v-.16c0-.32.18-.54.59-.54s.59.22.59.54v.16c0,.32-.18.54-.59.54S49.57,141.17,49.57,140.85Zm.11,2h1V149h-1Z"
     id="path196" />
  <path
     class="cls-13"
     d="M52.09,148l.68-.55a2.25,2.25,0,0,0,1.84.94c.82,0,1.29-.37,1.29-1,0-.48-.26-.85-1.07-1l-.5-.08c-1.14-.16-2-.63-2-1.78s.95-1.83,2.21-1.83a2.58,2.58,0,0,1,2.16,1l-.64.57a1.9,1.9,0,0,0-1.59-.75c-.79,0-1.21.37-1.21,1s.42.84,1.18,1l.48.07c1.37.2,1.9.8,1.9,1.74,0,1.2-.88,1.93-2.29,1.93A2.88,2.88,0,0,1,52.09,148Z"
     id="path198" />
  <path
     class="cls-13"
     d="M59.89,149a1,1,0,0,1-1-1v-4.33h-1v-.84h.58c.4,0,.54-.15.54-.57v-1.15h.86v1.72h1.36v.84H59.83v4.51h1.26V149Z"
     id="path200" />
  <path
     class="cls-13"
     d="M62.28,145.93c0-2,1.1-3.24,2.78-3.24s2.68,1.27,2.68,3v.45H63.29v.29a1.75,1.75,0,0,0,1.83,1.87,1.78,1.78,0,0,0,1.7-1.07l.69.49a2.61,2.61,0,0,1-2.45,1.42C63.38,149.17,62.28,147.9,62.28,145.93Zm1-.56v.08H66.7v-.13a1.64,1.64,0,0,0-1.64-1.82A1.76,1.76,0,0,0,63.29,145.37Z"
     id="path202" />
  <path
     class="cls-13"
     d="M69.32,149v-6.19h1V144h.06a1.78,1.78,0,0,1,1.79-1.14h.37v1h-.56c-1,0-1.66.44-1.66,1V149Z"
     id="path204" />
  <path
     class="cls-13"
     d="M77.54,148h-.05a1.72,1.72,0,0,1-1.74,1.15c-1.27,0-2.08-.86-2.08-2.36v-4h1v3.8c0,1.1.49,1.67,1.41,1.67.76,0,1.5-.38,1.5-1.19v-4.28h1V149h-1Z"
     id="path206" />
  <path
     class="cls-13"
     d="M80.54,149v-6.19h1v1h0a1.76,1.76,0,0,1,1.75-1.15c1.27,0,2.08.87,2.08,2.37v4h-1v-3.81c0-1.1-.48-1.66-1.41-1.66-.77,0-1.51.38-1.51,1.17V149Z"
     id="path208" />
  <path
     class="cls-13"
     d="M89.58,151.57c-1.93,0-2.73-.55-2.73-1.52a1.16,1.16,0,0,1,1-1.2v-.14a.88.88,0,0,1-.55-.86c0-.62.44-.92,1.06-1.08v-.05a2,2,0,0,1-1.16-1.89,2.12,2.12,0,0,1,2.33-2.14,2.84,2.84,0,0,1,1.17.24v-.1c0-.48.21-.83.72-.83h.92v.84H91.16v.39a2.09,2.09,0,0,1,.71,1.6A2.12,2.12,0,0,1,89.53,147a2.84,2.84,0,0,1-.6-.06c-.41.11-.82.32-.82.7s.39.47,1,.47h1.32c1.54,0,2.19.62,2.19,1.64C92.57,151,91.57,151.57,89.58,151.57Zm.81-2.6H88.33a.86.86,0,0,0-.58.84c0,.54.38,1,1.35,1H90c1.07,0,1.69-.34,1.69-1C91.67,149.29,91.35,149,90.39,149Zm.47-4v-.34c0-.82-.52-1.2-1.33-1.2s-1.33.38-1.33,1.2V145c0,.81.51,1.2,1.33,1.2S90.86,145.81,90.86,145Z"
     id="path210" />
  <path
     class="cls-13"
     d="M28.34,135.68l-.84-2.47H24.12l-.84,2.47h-1l2.93-8.37h1.28l2.93,8.37Zm-2.51-7.43h-.06l-1.41,4.07h2.89Z"
     id="path212" />
  <path
     class="cls-13"
     d="M30.7,135.68v-6.19h.95v1h.05a1.76,1.76,0,0,1,1.75-1.15c1.28,0,2.08.86,2.08,2.36v4h-1v-3.8c0-1.1-.48-1.67-1.4-1.67s-1.52.39-1.52,1.18v4.29Z"
     id="path214" />
  <path
     class="cls-13"
     d="M37.85,130.33h-1v-.84h1v-1.24a1.27,1.27,0,0,1,1.35-1.44h.94v.84H38.81v1.84h1.33v.84H38.81v5.35h-1Z"
     id="path216" />
  <path
     class="cls-13"
     d="M45.9,135.68a1,1,0,0,1-1.07-1h-.06A1.75,1.75,0,0,1,43,135.83,1.82,1.82,0,0,1,40.91,134c0-1.17.84-1.82,2.64-1.82h1.22v-.61c0-.87-.48-1.35-1.46-1.35a1.74,1.74,0,0,0-1.58.92l-.57-.54a2.34,2.34,0,0,1,2.19-1.21c1.49,0,2.38.78,2.38,2.09v3.4h.71v.84Zm-4.2-8v-.13a.59.59,0,0,1,1.17,0v.13a.59.59,0,0,1-1.17,0Zm3.07,6.16v-1H43.5c-1.09,0-1.59.34-1.59.94v.25c0,.61.48,1,1.23,1C44.09,135,44.77,134.52,44.77,133.88Zm-.84-6.16v-.13a.59.59,0,0,1,1.17,0v.13a.59.59,0,0,1-1.17,0Z"
     id="path218" />
  <path
     class="cls-13"
     d="M47.81,135.68v-6.19h1v1h0a1.76,1.76,0,0,1,1.75-1.15c1.28,0,2.08.86,2.08,2.36v4h-1v-3.8c0-1.1-.48-1.67-1.4-1.67s-1.51.39-1.51,1.18v4.29Z"
     id="path220" />
  <path
     class="cls-13"
     d="M56.84,138.23c-1.93,0-2.72-.56-2.72-1.53a1.16,1.16,0,0,1,1-1.2v-.13a.89.89,0,0,1-.55-.86c0-.63.44-.93,1.07-1.08v-.05a2,2,0,0,1-1.17-1.9,2.13,2.13,0,0,1,2.33-2.13,2.73,2.73,0,0,1,1.18.24v-.11c0-.48.2-.83.72-.83h.92v.84H58.42v.4a2,2,0,0,1,.71,1.59,2.13,2.13,0,0,1-2.34,2.14,2.91,2.91,0,0,1-.6-.06c-.4.11-.81.31-.81.69s.38.47.95.47h1.32c1.53,0,2.19.63,2.19,1.65C59.84,137.64,58.83,138.23,56.84,138.23Zm.82-2.61H55.59a.87.87,0,0,0-.57.84c0,.54.37,1,1.34,1h.89c1.07,0,1.69-.34,1.69-1C58.94,136,58.62,135.62,57.66,135.62Zm.46-4v-.33c0-.82-.51-1.2-1.33-1.2s-1.33.38-1.33,1.2v.33c0,.82.52,1.2,1.33,1.2S58.12,132.47,58.12,131.65Z"
     id="path222" />
  <path
     class="cls-13"
     d="M62,135.68a.94.94,0,0,1-1-1v-7.88h1v8h.91v.84Z"
     id="path224" />
  <path
     class="cls-13"
     d="M64.11,127.5v-.15c0-.33.18-.54.59-.54s.59.21.59.54v.15c0,.33-.18.54-.59.54S64.11,127.83,64.11,127.5Zm.11,2h1v6.19h-1Z"
     id="path226" />
  <path
     class="cls-13"
     d="M66.77,132.59c0-2,1-3.24,2.75-3.24a2.32,2.32,0,0,1,2.32,1.45l-.8.41a1.5,1.5,0,0,0-1.52-1,1.66,1.66,0,0,0-1.72,1.86v1.06A1.65,1.65,0,0,0,69.52,135a1.75,1.75,0,0,0,1.68-1.07l.7.46a2.45,2.45,0,0,1-2.38,1.47C67.79,135.83,66.77,134.57,66.77,132.59Z"
     id="path228" />
  <path
     class="cls-13"
     d="M73.26,126.81h1v3.69h0A1.77,1.77,0,0,1,76,129.35c1.27,0,2.07.86,2.07,2.36v4h-1v-3.8c0-1.1-.48-1.67-1.4-1.67s-1.51.39-1.51,1.18v4.29h-1Z"
     id="path230" />
  <path
     class="cls-13"
     d="M79.62,132.59c0-2,1.1-3.24,2.78-3.24s2.67,1.27,2.67,3v.46H80.63v.29A1.75,1.75,0,0,0,82.46,135a1.79,1.79,0,0,0,1.7-1.07l.69.49a2.61,2.61,0,0,1-2.45,1.42C80.72,135.83,79.62,134.55,79.62,132.59Zm1-.57v.09H84V132a1.65,1.65,0,0,0-1.64-1.83A1.76,1.76,0,0,0,80.63,132Z"
     id="path232" />
  <path
     class="cls-13"
     d="M99.06,258.57h-5.5v-1L96.3,255a3.6,3.6,0,0,0,1.38-2.36v-.14A1.42,1.42,0,0,0,96.13,251a1.7,1.7,0,0,0-1.74,1.41l-.9-.35a2.65,2.65,0,0,1,2.69-2,2.33,2.33,0,0,1,2.56,2.43,4.27,4.27,0,0,1-1.83,3.17l-2.26,2h4.41Z"
     id="path234" />
  <path
     class="cls-13"
     d="M100,260.38l3.13-10.68H104l-3.13,10.68Z"
     id="path236" />
  <path
     class="cls-13"
     d="M107.59,253.75c1.13,0,1.7-.59,1.7-1.39v-.08c0-.88-.61-1.32-1.5-1.32a1.8,1.8,0,0,0-1.72,1l-.75-.58a2.77,2.77,0,0,1,2.5-1.36c1.41,0,2.54.75,2.54,2.11a2,2,0,0,1-1.61,2v0a2.08,2.08,0,0,1,1.77,2.11c0,1.44-1.14,2.44-2.85,2.44a3.09,3.09,0,0,1-2.71-1.43l.76-.58a2.08,2.08,0,0,0,1.94,1.11c1.18,0,1.8-.57,1.8-1.55v-.1c0-1-.62-1.54-1.8-1.54h-1v-.88Z"
     id="path238" />
  <path
     class="cls-13"
     d="M121,258.57h-6.1v-.91l4.84-6.57h-4.59v-.89h5.68v.91L116,257.69h5Z"
     id="path240" />
  <path
     class="cls-13"
     d="M122,255.48c0-2,1.11-3.24,2.79-3.24s2.67,1.27,2.67,3v.46H123V256a1.76,1.76,0,0,0,1.84,1.87,1.79,1.79,0,0,0,1.7-1.07l.68.49a2.59,2.59,0,0,1-2.44,1.42C123.12,258.72,122,257.45,122,255.48Zm1-.57V255h3.42v-.13A1.65,1.65,0,0,0,124.8,253,1.76,1.76,0,0,0,123,254.91Z"
     id="path242" />
  <path
     class="cls-13"
     d="M129,250.39v-.15c0-.33.18-.54.59-.54s.59.21.59.54v.15c0,.33-.19.54-.59.54S129,250.72,129,250.39Zm.11,2h1v6.19h-1Z"
     id="path244" />
  <path
     class="cls-13"
     d="M133.42,258.57a.94.94,0,0,1-1-1v-4.33h-1v-.84H132c.41,0,.54-.14.54-.56v-1.15h.86v1.71h1.36v.84h-1.36v4.51h1.26v.84Z"
     id="path246" />
  <path
     class="cls-13"
     d="M88.06,273.74v-.89h2.33v-6.57L88,267.68l-.39-.77,2.66-1.54h1.1v7.48h2.16v.89Z"
     id="path248" />
  <path
     class="cls-13"
     d="M94.31,275.55l3.13-10.69h.86l-3.13,10.69Z"
     id="path250" />
  <path
     class="cls-13"
     d="M101.93,268.92c1.12,0,1.7-.59,1.7-1.4v-.08c0-.88-.61-1.32-1.5-1.32a1.84,1.84,0,0,0-1.73,1l-.74-.57a2.77,2.77,0,0,1,2.49-1.37c1.42,0,2.55.76,2.55,2.11a2,2,0,0,1-1.61,2v0a2.07,2.07,0,0,1,1.76,2.11c0,1.44-1.14,2.43-2.84,2.43a3.07,3.07,0,0,1-2.71-1.43l.75-.57a2.1,2.1,0,0,0,2,1.1c1.17,0,1.8-.56,1.8-1.55v-.09c0-1-.63-1.55-1.8-1.55h-1v-.87Z"
     id="path252" />
  <path
     class="cls-13"
     d="M115.18,273.74l-.84-2.47H111l-.84,2.47h-1l2.93-8.37h1.28l2.93,8.37Zm-2.5-7.44h-.06l-1.42,4.08h2.89Z"
     id="path254" />
  <path
     class="cls-13"
     d="M117.54,273.74v-6.19h1v1.14h.06a1.77,1.77,0,0,1,1.78-1.14h.38v1h-.57c-1,0-1.65.44-1.65,1v4.2Z"
     id="path256" />
  <path
     class="cls-13"
     d="M121.94,264.86h1v3.7h0a1.81,1.81,0,0,1,1.81-1.16c1.55,0,2.52,1.26,2.52,3.24s-1,3.24-2.52,3.24a1.86,1.86,0,0,1-1.81-1.15h0v1h-1Zm4.31,6.31v-1.06a1.68,1.68,0,0,0-1.75-1.84c-.88,0-1.6.5-1.6,1.19v2.3c0,.8.72,1.26,1.6,1.26A1.69,1.69,0,0,0,126.25,271.17Z"
     id="path258" />
  <path
     class="cls-13"
     d="M128.45,270.64c0-2,1.1-3.24,2.78-3.24s2.67,1.28,2.67,3v.45h-4.45v.29a1.76,1.76,0,0,0,1.84,1.87A1.78,1.78,0,0,0,133,272l.68.5a2.58,2.58,0,0,1-2.44,1.41C129.55,273.88,128.45,272.61,128.45,270.64Zm1-.56v.08h3.42V270a1.64,1.64,0,0,0-1.64-1.82A1.76,1.76,0,0,0,129.45,270.08Z"
     id="path260" />
  <path
     class="cls-13"
     d="M135.38,265.56v-.16c0-.32.18-.54.59-.54s.59.22.59.54v.16c0,.32-.18.54-.59.54S135.38,265.88,135.38,265.56Zm.11,2h1v6.19h-1Z"
     id="path262" />
  <path
     class="cls-13"
     d="M139.86,273.74a1,1,0,0,1-1-1v-4.33h-1v-.84h.57c.41,0,.54-.15.54-.57v-1.15h.87v1.72h1.35v.84H139.8v4.51h1.26v.84Z"
     id="path264" />
  <path
     class="cls-13"
     d="M212.77,258.57v-.88h2.34v-6.58l-2.36,1.41-.4-.77L215,250.2h1.1v7.49h2.16v.88Z"
     id="path266" />
  <path
     class="cls-13"
     d="M219,260.38l3.13-10.68H223l-3.13,10.68Z"
     id="path268" />
  <path
     class="cls-13"
     d="M226.64,253.75c1.13,0,1.71-.59,1.71-1.39v-.08c0-.88-.61-1.32-1.5-1.32a1.82,1.82,0,0,0-1.73,1l-.74-.58a2.76,2.76,0,0,1,2.49-1.36c1.42,0,2.55.75,2.55,2.11a2,2,0,0,1-1.61,2v0a2.07,2.07,0,0,1,1.76,2.11c0,1.44-1.14,2.44-2.84,2.44a3.07,3.07,0,0,1-2.71-1.43l.75-.58a2.11,2.11,0,0,0,1.95,1.11c1.17,0,1.8-.57,1.8-1.55v-.1c0-1-.63-1.54-1.8-1.54h-1v-.88Z"
     id="path270" />
  <path
     class="cls-13"
     d="M240.07,258.57H234v-.91l4.83-6.57h-4.58v-.89h5.67v.91l-4.84,6.58h5Z"
     id="path272" />
  <path
     class="cls-13"
     d="M241.07,255.48c0-2,1.1-3.24,2.78-3.24a2.71,2.71,0,0,1,2.68,3v.46h-4.45V256a1.75,1.75,0,0,0,1.83,1.87,1.79,1.79,0,0,0,1.7-1.07l.69.49a2.61,2.61,0,0,1-2.45,1.42C242.17,258.72,241.07,257.45,241.07,255.48Zm1-.57V255h3.41v-.13a1.65,1.65,0,0,0-1.64-1.83A1.76,1.76,0,0,0,242.08,254.91Z"
     id="path274" />
  <path
     class="cls-13"
     d="M248,250.39v-.15c0-.33.18-.54.59-.54s.59.21.59.54v.15c0,.33-.18.54-.59.54S248,250.72,248,250.39Zm.11,2h1v6.19h-1Z"
     id="path276" />
  <path
     class="cls-13"
     d="M252.48,258.57a1,1,0,0,1-1-1v-4.33h-1v-.84H251c.4,0,.54-.14.54-.56v-1.15h.86v1.71h1.35v.84h-1.35v4.51h1.26v.84Z"
     id="path278" />
  <path
     class="cls-13"
     d="M212.45,273.74H207v-1l2.74-2.52a3.6,3.6,0,0,0,1.38-2.37v-.14a1.43,1.43,0,0,0-1.55-1.56,1.7,1.7,0,0,0-1.74,1.42l-.9-.35a2.65,2.65,0,0,1,2.69-2,2.34,2.34,0,0,1,2.57,2.44c0,1.29-.77,2.2-1.84,3.16l-2.25,2h4.4Z"
     id="path280" />
  <path
     class="cls-13"
     d="M213.36,275.55l3.13-10.69h.87l-3.13,10.69Z"
     id="path282" />
  <path
     class="cls-13"
     d="M221,268.92c1.13,0,1.7-.59,1.7-1.4v-.08c0-.88-.61-1.32-1.5-1.32a1.83,1.83,0,0,0-1.72,1l-.75-.57a2.79,2.79,0,0,1,2.5-1.37c1.41,0,2.54.76,2.54,2.11a2,2,0,0,1-1.61,2v0a2.08,2.08,0,0,1,1.77,2.11c0,1.44-1.14,2.43-2.85,2.43a3.09,3.09,0,0,1-2.71-1.43l.76-.57a2.07,2.07,0,0,0,1.94,1.1c1.18,0,1.8-.56,1.8-1.55v-.09c0-1-.62-1.55-1.8-1.55h-1v-.87Z"
     id="path284" />
  <path
     class="cls-13"
     d="M234.24,273.74l-.84-2.47H230l-.84,2.47h-1l2.92-8.37h1.29l2.92,8.37Zm-2.51-7.44h-.06l-1.41,4.08h2.89Z"
     id="path286" />
  <path
     class="cls-13"
     d="M236.59,273.74v-6.19h1v1.14h.06a1.78,1.78,0,0,1,1.79-1.14h.37v1h-.56c-1,0-1.66.44-1.66,1v4.2Z"
     id="path288" />
  <path
     class="cls-13"
     d="M241,264.86h1v3.7h0a1.82,1.82,0,0,1,1.81-1.16c1.55,0,2.52,1.26,2.52,3.24s-1,3.24-2.52,3.24a1.87,1.87,0,0,1-1.81-1.15h0v1h-1Zm4.3,6.31v-1.06a1.68,1.68,0,0,0-1.75-1.84c-.88,0-1.59.5-1.59,1.19v2.3c0,.8.71,1.26,1.59,1.26A1.69,1.69,0,0,0,245.3,271.17Z"
     id="path290" />
  <path
     class="cls-13"
     d="M247.5,270.64c0-2,1.1-3.24,2.78-3.24s2.68,1.28,2.68,3v.45h-4.45v.29a1.75,1.75,0,0,0,1.83,1.87,1.8,1.8,0,0,0,1.71-1.07l.68.5a2.59,2.59,0,0,1-2.45,1.41C248.6,273.88,247.5,272.61,247.5,270.64Zm1-.56v.08h3.42V270a1.65,1.65,0,0,0-1.65-1.82A1.76,1.76,0,0,0,248.51,270.08Z"
     id="path292" />
  <path
     class="cls-13"
     d="M254.44,265.56v-.16a.51.51,0,0,1,.58-.54c.41,0,.59.22.59.54v.16c0,.32-.18.54-.59.54A.51.51,0,0,1,254.44,265.56Zm.1,2h1v6.19h-1Z"
     id="path294" />
  <path
     class="cls-13"
     d="M258.91,273.74a1,1,0,0,1-1-1v-4.33h-1v-.84h.58c.41,0,.54-.15.54-.57v-1.15h.86v1.72h1.36v.84h-1.36v4.51h1.26v.84Z"
     id="path296" />
  <path
     class="cls-13"
     d="M215.86,236.89v-8.37H221v.89h-4.1V232h3.86v.89h-3.86V236H221v.88Z"
     id="path298" />
  <path
     class="cls-13"
     d="M222.76,236.89V230.7h1v1h.05a1.75,1.75,0,0,1,1.75-1.15c1.27,0,2.07.86,2.07,2.36v4h-1v-3.8c0-1.1-.48-1.67-1.4-1.67-.77,0-1.51.39-1.51,1.18v4.29Z"
     id="path300" />
  <path
     class="cls-13"
     d="M233.53,235.89h-.05a1.87,1.87,0,0,1-1.81,1.15c-1.54,0-2.52-1.26-2.52-3.24s1-3.24,2.52-3.24a1.8,1.8,0,0,1,1.81,1.15h.05V228h1v8.87h-1Zm0-1v-2.3c0-.68-.72-1.19-1.59-1.19a1.7,1.7,0,0,0-1.76,1.85v1.06a1.69,1.69,0,0,0,1.76,1.84C232.81,236.17,233.53,235.72,233.53,234.91Z"
     id="path302" />
  <path
     class="cls-13"
     d="M237.9,236.89a1,1,0,0,1-1-1v-4.33h-1v-.84h.58c.4,0,.54-.14.54-.56V229h.86v1.71h1.35v.84h-1.35v4.51h1.26v.84Z"
     id="path304" />
  <path
     class="cls-13"
     d="M240.29,233.8c0-2,1.1-3.24,2.78-3.24a2.71,2.71,0,0,1,2.68,3V234H241.3v.29a1.75,1.75,0,0,0,1.83,1.87,1.79,1.79,0,0,0,1.7-1.07l.69.49a2.61,2.61,0,0,1-2.45,1.42C241.39,237,240.29,235.77,240.29,233.8Zm1-.57v.09h3.41v-.13a1.65,1.65,0,0,0-1.64-1.83A1.76,1.76,0,0,0,241.3,233.23Z"
     id="path306" />
  <path
     class="cls-13"
     d="M247.33,236.89V230.7h1v1.14h.06a1.79,1.79,0,0,1,1.79-1.14h.37v1H250c-1,0-1.66.45-1.66,1v4.19Z"
     id="path308" />
  <path
     class="cls-13"
     d="M251.74,236.89V230.7h1v1h0a1.68,1.68,0,0,1,1.67-1.15,1.91,1.91,0,0,1,1.9,1.26h0a1.86,1.86,0,0,1,1.88-1.26c1.26,0,2,.86,2,2.36v4h-1v-3.8c0-1.09-.42-1.67-1.36-1.67-.75,0-1.45.39-1.45,1.18v4.29h-1v-3.8c0-1.1-.42-1.67-1.33-1.67-.75,0-1.47.39-1.47,1.18v4.29Z"
     id="path310" />
  <path
     class="cls-13"
     d="M262.1,228.71v-.15c0-.33.18-.54.59-.54s.59.21.59.54v.15c0,.33-.18.54-.59.54S262.1,229,262.1,228.71Zm.11,2h1v6.19h-1Z"
     id="path312" />
  <path
     class="cls-13"
     d="M265.21,236.89V230.7h1v1h.05a1.76,1.76,0,0,1,1.75-1.15c1.27,0,2.07.86,2.07,2.36v4h-1v-3.8c0-1.1-.47-1.67-1.4-1.67-.77,0-1.51.39-1.51,1.18v4.29Z"
     id="path314" />
  <path
     class="cls-13"
     d="M284.6,236.89l-2.78-8.37h1.08l1.38,4.22.92,3.15h.06l.95-3.15,1.39-4.22h1l-2.82,8.37Z"
     id="path316" />
  <path
     class="cls-13"
     d="M289.45,233.8c0-2,1.1-3.24,2.78-3.24a2.71,2.71,0,0,1,2.68,3V234h-4.45v.29a1.75,1.75,0,0,0,1.83,1.87,1.82,1.82,0,0,0,1.71-1.07l.68.49a2.6,2.6,0,0,1-2.45,1.42C290.55,237,289.45,235.77,289.45,233.8Zm1-.57v.09h3.42v-.13a1.65,1.65,0,0,0-1.65-1.83A1.76,1.76,0,0,0,290.46,233.23Z"
     id="path318" />
  <path
     class="cls-13"
     d="M296.49,236.89V230.7h1v1.14h.06a1.79,1.79,0,0,1,1.79-1.14h.37v1h-.56c-1,0-1.66.45-1.66,1v4.19Z"
     id="path320" />
  <path
     class="cls-13"
     d="M300.31,235.83l.68-.56a2.26,2.26,0,0,0,1.84.95c.81,0,1.29-.37,1.29-1,0-.48-.26-.85-1.08-1l-.49-.07c-1.14-.17-2-.64-2-1.79s.95-1.82,2.21-1.82a2.58,2.58,0,0,1,2.16,1l-.64.57a1.91,1.91,0,0,0-1.59-.75c-.8,0-1.22.37-1.22,1s.42.84,1.19,1l.48.07c1.37.2,1.9.8,1.9,1.74,0,1.2-.88,1.93-2.29,1.93A2.88,2.88,0,0,1,300.31,235.83Z"
     id="path322" />
  <path
     class="cls-13"
     d="M306.74,230.7h1v1h.05a1.8,1.8,0,0,1,1.81-1.15c1.55,0,2.52,1.26,2.52,3.24s-1,3.24-2.52,3.24a1.87,1.87,0,0,1-1.81-1.15h-.05v3.4h-1Zm4.31,3.63v-1.06a1.7,1.7,0,0,0-1.76-1.85c-.87,0-1.59.51-1.59,1.19v2.3c0,.81.72,1.26,1.59,1.26A1.69,1.69,0,0,0,311.05,234.33Z"
     id="path324" />
  <path
     class="cls-13"
     d="M318.2,236.89a1,1,0,0,1-1.07-1h-.06a1.75,1.75,0,0,1-1.79,1.15,1.82,1.82,0,0,1-2.07-1.87c0-1.17.84-1.82,2.64-1.82h1.22v-.61c0-.87-.48-1.35-1.46-1.35a1.72,1.72,0,0,0-1.57.92l-.58-.54a2.36,2.36,0,0,1,2.2-1.21c1.48,0,2.37.78,2.37,2.09v3.4h.71v.84Zm-4.2-8v-.13c0-.34.18-.55.59-.55s.59.21.59.55v.13c0,.34-.18.55-.59.55S314,229.27,314,228.93Zm3.07,6.16v-1H315.8c-1.09,0-1.58.34-1.58.94v.25c0,.61.48,1,1.22,1C316.39,236.22,317.07,235.73,317.07,235.09Zm-.84-6.16v-.13c0-.34.18-.55.59-.55s.59.21.59.55v.13c0,.34-.18.55-.59.55S316.23,229.27,316.23,228.93Z"
     id="path326" />
  <path
     class="cls-13"
     d="M321.47,236.89a.94.94,0,0,1-1-1v-4.33h-1v-.84H320c.41,0,.54-.14.54-.56V229h.87v1.71h1.35v.84h-1.35v4.51h1.25v.84Z"
     id="path328" />
  <path
     class="cls-13"
     d="M328.13,235.89h-.05a1.71,1.71,0,0,1-1.73,1.15c-1.27,0-2.09-.87-2.09-2.37v-4h1v3.81c0,1.1.49,1.66,1.41,1.66.76,0,1.5-.37,1.5-1.18V230.7h1v6.19h-1Z"
     id="path330" />
  <path
     class="cls-13"
     d="M331.14,236.89V230.7h.95v1h.05a1.76,1.76,0,0,1,1.75-1.15c1.28,0,2.08.86,2.08,2.36v4h-1v-3.8c0-1.1-.48-1.67-1.4-1.67s-1.52.39-1.52,1.18v4.29Z"
     id="path332" />
  <path
     class="cls-13"
     d="M340.17,239.44c-1.93,0-2.72-.56-2.72-1.53a1.16,1.16,0,0,1,1-1.2v-.13a.89.89,0,0,1-.55-.86c0-.63.44-.93,1.07-1.08v0a2,2,0,0,1-1.17-1.89,2.13,2.13,0,0,1,2.33-2.14,2.76,2.76,0,0,1,1.18.24v-.11c0-.48.2-.83.71-.83h.93v.84h-1.18v.4a2,2,0,0,1,.71,1.6,2.12,2.12,0,0,1-2.34,2.13,2.91,2.91,0,0,1-.6-.06c-.41.11-.81.31-.81.7s.38.46.94.46H341c1.54,0,2.2.63,2.2,1.65C343.17,238.85,342.16,239.44,340.17,239.44Zm.82-2.61h-2.07a.87.87,0,0,0-.57.84c0,.54.37,1,1.34,1h.89c1.07,0,1.69-.34,1.69-1C342.27,237.16,342,236.83,341,236.83Zm.46-4v-.33c0-.82-.51-1.2-1.33-1.2s-1.33.38-1.33,1.2v.33c0,.82.52,1.2,1.33,1.2S341.45,233.68,341.45,232.86Z"
     id="path334" />
  <path
     class="cls-13"
     d="M336.28,219.89h-6.09V219L335,212.4h-4.58v-.89h5.67v.92L331.27,219h5Z"
     id="path336" />
  <path
     class="cls-13"
     d="M337.28,216.79c0-2,1.1-3.24,2.78-3.24a2.71,2.71,0,0,1,2.68,3V217h-4.45v.29a1.75,1.75,0,0,0,1.83,1.87,1.8,1.8,0,0,0,1.71-1.07l.68.49a2.59,2.59,0,0,1-2.45,1.42C338.38,220,337.28,218.76,337.28,216.79Zm1-.56v.08h3.42v-.13a1.65,1.65,0,0,0-1.65-1.82A1.76,1.76,0,0,0,338.29,216.23Z"
     id="path338" />
  <path
     class="cls-13"
     d="M344.22,211.71v-.16a.51.51,0,0,1,.58-.54c.41,0,.59.22.59.54v.16c0,.32-.18.54-.59.54A.51.51,0,0,1,344.22,211.71Zm.1,2h1v6.19h-1Z"
     id="path340" />
  <path
     class="cls-13"
     d="M348.69,219.89a1,1,0,0,1-1-1v-4.33h-1v-.84h.58c.41,0,.54-.15.54-.57V212h.86v1.72H350v.84h-1.36v4.51h1.26v.84Z"
     id="path342" />
</svg>
